<svg id="组_5404" data-name="组 5404" xmlns="http://www.w3.org/2000/svg" width="22" height="22" viewBox="0 0 22 22">
  <path id="路径_3" data-name="路径 3" d="M18.916,3.226A10.928,10.928,0,0,0,11.287.008c-.05,0-.1-.008-.149-.008s-.1,0-.149.008A10.992,10.992,0,0,0,3.36,18.774a10.928,10.928,0,0,0,7.629,3.218c.05,0,.1.008.149.008s.1,0,.149-.008A10.992,10.992,0,0,0,18.916,3.226ZM4.285,4.15A9.641,9.641,0,0,1,8.411,1.7a10.5,10.5,0,0,0-1,1.371,13.02,13.02,0,0,0-1.04,2.1H3.394A9.83,9.83,0,0,1,4.285,4.15ZM2.561,6.48H5.93a16.392,16.392,0,0,0-.609,3.866H1.468A9.607,9.607,0,0,1,2.561,6.48Zm0,9.04a9.606,9.606,0,0,1-1.093-3.866H5.321A16.392,16.392,0,0,0,5.93,15.52Zm1.724,2.33a9.811,9.811,0,0,1-.891-1.023H6.37a13.017,13.017,0,0,0,1.04,2.1,10.5,10.5,0,0,0,1,1.371A9.642,9.642,0,0,1,4.285,17.85Zm6.2,2.574a7.054,7.054,0,0,1-1.961-2.181,11.472,11.472,0,0,1-.739-1.416h2.7v3.6Zm0-4.9H7.294a14.949,14.949,0,0,1-.665-3.866h3.854V15.52Zm0-5.173H6.63A14.945,14.945,0,0,1,7.294,6.48h3.19Zm0-5.173h-2.7a11.472,11.472,0,0,1,.739-1.416,7.053,7.053,0,0,1,1.961-2.181v3.6ZM19.715,6.48a9.606,9.606,0,0,1,1.093,3.866H16.955a16.392,16.392,0,0,0-.609-3.866ZM17.992,4.15a9.83,9.83,0,0,1,.891,1.023H15.906a13.016,13.016,0,0,0-1.04-2.1,10.492,10.492,0,0,0-1-1.371A9.642,9.642,0,0,1,17.992,4.15Zm-6.2-2.574a7.054,7.054,0,0,1,1.961,2.181,11.472,11.472,0,0,1,.739,1.416h-2.7v-3.6Zm0,4.9h3.19a14.946,14.946,0,0,1,.665,3.866H11.792Zm3.854,5.173a14.945,14.945,0,0,1-.665,3.866h-3.19V11.654Zm-3.854,8.771v-3.6h2.7a11.472,11.472,0,0,1-.739,1.416A7.053,7.053,0,0,1,11.792,20.424Zm6.2-2.574a9.642,9.642,0,0,1-4.127,2.45,10.5,10.5,0,0,0,1-1.371,13.02,13.02,0,0,0,1.04-2.1h2.977A9.824,9.824,0,0,1,17.992,17.85Zm1.724-2.33H16.346a16.39,16.39,0,0,0,.609-3.866h3.853A9.607,9.607,0,0,1,19.715,15.52Z" transform="translate(-0.138)" fill="#066ddb"/>
</svg>
