<svg xmlns="http://www.w3.org/2000/svg" width="60" height="60" viewBox="0 0 60 60">
  <g id="组_4334" data-name="组 4334" transform="translate(-1800 -960)">
    <circle id="椭圆_132" data-name="椭圆 132" cx="30" cy="30" r="30" transform="translate(1800 960)" fill="#00e5ff"/>
    <g id="link-45deg" transform="translate(1814.68 975.18)">
      <path id="路径_1163" data-name="路径 1163" d="M7.691,7.92,4.505,11.106a6.968,6.968,0,0,0,9.854,9.854L18.6,16.712A6.967,6.967,0,0,0,16.681,5.5L15.32,6.861a2.327,2.327,0,0,0-.358.462,4.645,4.645,0,0,1,2,7.75l-4.243,4.245a4.647,4.647,0,0,1-6.572-6.572l1.842-1.839a9.331,9.331,0,0,1-.3-2.989Z" transform="translate(0 4.674)" fill="#fff" stroke="#fff" stroke-linecap="round" stroke-linejoin="round" stroke-width="1"/>
      <path id="路径_1164" data-name="路径 1164" d="M7.748,8.251A6.967,6.967,0,0,0,9.671,19.464l1.8-1.8A4.645,4.645,0,0,1,9.39,9.891l4.243-4.245a4.647,4.647,0,1,1,6.572,6.572l-1.842,1.839a9.343,9.343,0,0,1,.3,2.989l3.186-3.186a6.968,6.968,0,1,0-9.854-9.854Z" transform="translate(4.289 0)" fill="#fff" stroke="#fff" stroke-linecap="round" stroke-linejoin="round" stroke-width="1"/>
    </g>
  </g>
</svg>
