<svg xmlns="http://www.w3.org/2000/svg" xmlns:xlink="http://www.w3.org/1999/xlink" width="22" height="22" viewBox="0 0 22 22">
  <defs>
    <clipPath id="clip-path">
      <rect id="矩形_1126" data-name="矩形 1126" width="21.436" height="21.931" fill="#066ddb"/>
    </clipPath>
  </defs>
  <g id="组_5403" data-name="组 5403" transform="translate(-1766.972 -34.972)">
    <rect id="矩形_1127" data-name="矩形 1127" width="22" height="22" transform="translate(1766.972 34.972)" fill="none"/>
    <g id="组_4187" data-name="组 4187" transform="translate(1767.006 35.008)">
      <g id="组_4186" data-name="组 4186" transform="translate(0 0)" clip-path="url(#clip-path)">
        <path id="路径_1136" data-name="路径 1136" d="M20.551,21.931a.886.886,0,0,1-.641-.269l-5.667-5.826-.219.152a8.909,8.909,0,0,1-4.971,1.593H8.928A8.967,8.967,0,0,1,0,8.771,8.872,8.872,0,0,1,8.779,0h.138a8.95,8.95,0,0,1,8.91,8.781,8.71,8.71,0,0,1-2.09,5.654l-.186.219,5.641,5.8a.872.872,0,0,1-.023,1.235.9.9,0,0,1-.617.244M8.879,1.72a7.122,7.122,0,0,0-7.1,7.055,7.114,7.114,0,0,0,7.011,7.018h.126a7.172,7.172,0,0,0,7.135-7.012,7.124,7.124,0,0,0-7.1-7.063Z" transform="translate(0 0)" fill="#066ddb"/>
      </g>
    </g>
  </g>
</svg>
