<svg xmlns="http://www.w3.org/2000/svg" width="25" height="25" viewBox="0 0 25 25">
  <g id="组_864" data-name="组 864" transform="translate(-1038 -2262)">
    <g id="路径_759" data-name="路径 759" transform="translate(1038 2262)" fill="none">
      <path d="M12.5,0A12.5,12.5,0,1,1,0,12.5,12.5,12.5,0,0,1,12.5,0Z" stroke="none"/>
      <path d="M 12.5 1.5 C 9.561790466308594 1.5 6.799449920654297 2.644199371337891 4.721830368041992 4.721830368041992 C 2.644199371337891 6.799449920654297 1.5 9.561790466308594 1.5 12.5 C 1.5 15.43820953369141 2.644199371337891 18.2005500793457 4.721830368041992 20.27816963195801 C 6.799449920654297 22.35580062866211 9.561790466308594 23.5 12.5 23.5 C 15.43820953369141 23.5 18.2005500793457 22.35580062866211 20.27816963195801 20.27816963195801 C 22.35580062866211 18.2005500793457 23.5 15.43820953369141 23.5 12.5 C 23.5 9.561790466308594 22.35580062866211 6.799449920654297 20.27816963195801 4.721830368041992 C 18.2005500793457 2.644199371337891 15.43820953369141 1.5 12.5 1.5 M 12.5 0 C 19.40356063842773 0 25 5.596439361572266 25 12.5 C 25 19.40356063842773 19.40356063842773 25 12.5 25 C 5.596439361572266 25 0 19.40356063842773 0 12.5 C 0 5.596439361572266 5.596439361572266 0 12.5 0 Z" stroke="none" fill="#fff"/>
    </g>
    <g id="组_828" data-name="组 828" transform="translate(1045.771 2270.773)">
      <path id="路径_758" data-name="路径 758" d="M-9544-7117.2l3.728,3.726-3.728,3.727" transform="translate(9549.729 7117.2)" fill="none" stroke="#fff" stroke-linecap="round" stroke-linejoin="round" stroke-width="1.5"/>
      <path id="路径_796" data-name="路径 796" d="M552.255,3550h-9.011" transform="translate(-543.245 -3546.273)" fill="#fff" stroke="#fff" stroke-linecap="round" stroke-width="1.5"/>
    </g>
  </g>
</svg>
