<svg id="组_5180" data-name="组 5180" xmlns="http://www.w3.org/2000/svg" xmlns:xlink="http://www.w3.org/1999/xlink" width="120" height="16" viewBox="0 0 120 16">
  <defs>
    <clipPath id="clip-path">
      <rect id="矩形_1562" data-name="矩形 1562" width="120" height="16" fill="none"/>
    </clipPath>
  </defs>
  <g id="组_5179" data-name="组 5179" clip-path="url(#clip-path)">
    <path id="路径_1844" data-name="路径 1844" d="M28.437,15.637c5,0,9.055-3.365,9.055-7.516S33.438.605,28.437.605,19.382,3.97,19.382,8.121s4.054,7.516,9.055,7.516" fill="#777"/>
    <path id="路径_1845" data-name="路径 1845" d="M24.09,6.865c-1.2,1.405-1.038,3.694.181,6.133a15.332,15.332,0,0,0,1.566,2.441c.07.014.141.03.212.046a20.234,20.234,0,0,1-.954-2.162c-.706-1.984-.59-3.885.511-5.178,2.066-2.424,6.82-1.793,10.644,1.4l.05-.058C31.641,5.583,26.185,4.406,24.09,6.865" fill="#fff"/>
    <path id="路径_1846" data-name="路径 1846" d="M24.09,6.865c-1.2,1.405-1.038,3.694.181,6.133a15.332,15.332,0,0,0,1.566,2.441c.07.014.141.03.212.046a20.234,20.234,0,0,1-.954-2.162c-.706-1.984-.59-3.885.511-5.178,2.066-2.424,6.82-1.793,10.644,1.4l.05-.058C31.641,5.583,26.185,4.406,24.09,6.865Z" fill="none" stroke="#fff" stroke-width="0.409"/>
    <path id="路径_1847" data-name="路径 1847" d="M72.746,15.288,67.084,2.573a2.573,2.573,0,0,0-.235-.443C66.695,1.821,65.98.681,63.718.638,61.1.588,60.58,2.192,60.58,2.192h.029c-.042.071-.089.141-.125.215l-5.849,12.85h4.517L60.371,12.5H67.04L68.2,15.288ZM61.41,9.818,63.555,4.04a.22.22,0,0,1,.345-.012l1.977,5.79Z" fill="#777"/>
    <path id="路径_1848" data-name="路径 1848" d="M17.159.845V13.679a3.73,3.73,0,0,1-1.128,1.331,3.34,3.34,0,0,1-1.913.458,4.13,4.13,0,0,1-1.472-.239,4.8,4.8,0,0,1-1.223-.7L5.53,5.338H5.311V15.3H1.268V2.718q0-1.581,2.319-2.039c.251-.028.429-.042.533-.042a3.656,3.656,0,0,1,1.3.219,6.9,6.9,0,0,1,1.238.634l6.112,9.381h.251V.845Z" fill="#777"/>
    <path id="路径_1849" data-name="路径 1849" d="M51.653.845h4.889L50.556,14.283a2.833,2.833,0,0,1-1.254.873,4.778,4.778,0,0,1-1.723.312,4.16,4.16,0,0,1-2.038-.5,3.21,3.21,0,0,1-.611-.52,2.646,2.646,0,0,1-.423-.6l-5.642-13h4.827L47.61,11.121Z" fill="#777"/>
    <path id="路径_1850" data-name="路径 1850" d="M85.568.845V3.632H81.023V15.3H76.416V3.591H71.839V.845Z" fill="#777"/>
    <path id="路径_1851" data-name="路径 1851" d="M100.264,12.389V15.3H91.236a3.947,3.947,0,0,1-2.084-.821,1.953,1.953,0,0,1-.831-1.529V3.321a2.465,2.465,0,0,1,.69-1.779A2.88,2.88,0,0,1,91.173.825Q91.331.8,92.991.8h7.273v2.87H92.835V6.233h7.084V9.062H92.835v3.327Z" fill="#777"/>
    <path id="路径_1852" data-name="路径 1852" d="M107.252,15.494h-4.513V1.037h4.513Zm4.588-7.426,7.428,7.426H113.8L108.1,9.607a2.456,2.456,0,0,1-.69-1.56,1.842,1.842,0,0,1,.094-.561l6.05-6.365h5.341Z" fill="#777"/>
  </g>
</svg>
