<svg id="组_5405" data-name="组 5405" xmlns="http://www.w3.org/2000/svg" xmlns:xlink="http://www.w3.org/1999/xlink" width="178" height="25" viewBox="0 0 178 25">
  <defs>
    <clipPath id="clip-path">
      <rect id="矩形_1552" data-name="矩形 1552" width="178" height="25" fill="#777"/>
    </clipPath>
  </defs>
  <g id="组_5138" data-name="组 5138" clip-path="url(#clip-path)">
    <path id="路径_1827" data-name="路径 1827" d="M41.469,24.18c7.51,0,13.6-5.077,13.6-11.339S48.979,1.5,41.469,1.5s-13.6,5.076-13.6,11.338,6.088,11.339,13.6,11.339" fill="#777"/>
    <path id="路径_1828" data-name="路径 1828" d="M34.942,10.948c-1.8,2.119-1.559,5.572.272,9.251a23.092,23.092,0,0,0,2.351,3.682c.106.022.212.046.318.069a30.789,30.789,0,0,1-1.431-3.26c-1.061-2.993-.887-5.861.767-7.811,3.1-3.657,10.24-2.7,15.983,2.115l.075-.088c-7-5.892-15.189-7.667-18.335-3.958" fill="#666"/>
    <path id="路径_1829" data-name="路径 1829" d="M34.942,10.948c-1.8,2.119-1.559,5.572.272,9.251a23.092,23.092,0,0,0,2.351,3.682c.106.022.212.046.318.069a30.789,30.789,0,0,1-1.431-3.26c-1.061-2.993-.887-5.861.767-7.811,3.1-3.657,10.24-2.7,15.983,2.115l.075-.088C46.281,9.014,38.088,7.239,34.942,10.948Z" fill="#fff"/>
    <path id="路径_1830" data-name="路径 1830" d="M108,23.653,99.5,4.473A3.851,3.851,0,0,0,99.15,3.8c-.23-.466-1.3-2.185-4.7-2.251C90.518,1.478,89.737,3.9,89.737,3.9h.044c-.064.108-.134.213-.188.325L80.809,23.6h6.783l1.831-4.165H99.438l1.739,4.213ZM90.983,15.4,94.2,6.685a.332.332,0,0,1,.52-.018L97.69,15.4Z" fill="#777"/>
    <path id="路径_1831" data-name="路径 1831" d="M24.534,1.866v19.36a5.62,5.62,0,0,1-1.694,2.008,5,5,0,0,1-2.872.69,6.183,6.183,0,0,1-2.212-.36,7.288,7.288,0,0,1-1.835-1.051L7.072,8.644H6.743v15.03H.672V4.691q0-2.385,3.482-3.076c.377-.041.644-.063.8-.063a5.5,5.5,0,0,1,1.954.33,10.344,10.344,0,0,1,1.859.957L17.945,16.99h.377V1.866Z" fill="#777"/>
    <path id="路径_1832" data-name="路径 1832" d="M76.331,1.866h7.342l-8.989,20.27A4.248,4.248,0,0,1,72.8,23.454a7.165,7.165,0,0,1-2.588.47,6.225,6.225,0,0,1-3.06-.753,4.947,4.947,0,0,1-.918-.783,4.036,4.036,0,0,1-.635-.911L57.128,1.866h7.248l5.884,15.5Z" fill="#777"/>
    <path id="路径_1833" data-name="路径 1833" d="M127.259,1.866v4.2h-6.825v17.6h-6.919V6.008h-6.871V1.866Z" fill="#777"/>
    <path id="路径_1834" data-name="路径 1834" d="M149.327,19.281v4.393H135.77a5.911,5.911,0,0,1-3.13-1.239,2.952,2.952,0,0,1-1.247-2.307V5.6a3.728,3.728,0,0,1,1.036-2.682,4.31,4.31,0,0,1,3.247-1.082q.235-.033,2.73-.032h10.921v4.33H138.171V9.993h10.638v4.268H138.171v5.02Z" fill="#777"/>
    <path id="路径_1835" data-name="路径 1835" d="M159.82,23.965h-6.777V2.157h6.777Zm6.89-11.2,11.155,11.2h-8.208l-8.566-8.88a3.709,3.709,0,0,1-1.035-2.353,2.768,2.768,0,0,1,.141-.848l9.084-9.6h8.02Z" fill="#777"/>
  </g>
</svg>
