<svg id="arrow_blue_right" data-name="arrow/blue/right" xmlns="http://www.w3.org/2000/svg" width="40" height="40" viewBox="0 0 40 40">
  <g id="basic-color" fill="none">
    <path d="M20,0A20,20,0,1,1,0,20,20,20,0,0,1,20,0Z" stroke="none"/>
    <path d="M 20 2 C 15.19202995300293 2 10.67182922363281 3.872329711914062 7.272079467773438 7.272079467773438 C 3.872329711914062 10.67182922363281 2 15.19202995300293 2 20 C 2 24.80797004699707 3.872329711914062 29.32817077636719 7.272079467773438 32.72792053222656 C 10.67182922363281 36.12767028808594 15.19202995300293 38 20 38 C 24.80797004699707 38 29.32817077636719 36.12767028808594 32.72792053222656 32.72792053222656 C 36.12767028808594 29.32817077636719 38 24.80797004699707 38 20 C 38 15.19202995300293 36.12767028808594 10.67182922363281 32.72792053222656 7.272079467773438 C 29.32817077636719 3.872329711914062 24.80797004699707 2 20 2 M 20 0 C 31.04568862915039 0 40 8.954309463500977 40 20 C 40 31.04568862915039 31.04568862915039 40 20 40 C 8.954309463500977 40 0 31.04568862915039 0 20 C 0 8.954309463500977 8.954309463500977 0 20 0 Z" stroke="none" fill="#066ddb"/>
  </g>
  <path id="hover-color" d="M19,38A19,19,0,1,1,38,19,19,19,0,0,1,19,38Z" transform="translate(1 1)" fill="#066ddb"/>
  <g id="arrow" transform="translate(-6880 -1186)">
    <rect id="矩形_836" data-name="矩形 836" width="25" height="20" transform="translate(6888 1196)" fill="none"/>
    <g id="组_828" data-name="组 828" transform="translate(5835.009 -1083.275)">
      <path id="路径_758" data-name="路径 758" d="M-9544-7117.2l8.348,7.623-8.348,7.624" transform="translate(10608.816 9398.852)" fill="none" stroke="#fff" stroke-linecap="round" stroke-linejoin="round" stroke-width="2"/>
      <path id="路径_796" data-name="路径 796" d="M559.6,3550H543.245" transform="translate(512.571 -1260.725)" fill="#066ddb" stroke="#fff" stroke-linecap="round" stroke-width="2"/>
    </g>
  </g>
</svg>
