<svg xmlns="http://www.w3.org/2000/svg" xmlns:xlink="http://www.w3.org/1999/xlink" width="224" height="26" viewBox="0 0 224 26">
  <defs>
    <clipPath id="clip-path">
      <rect id="Rectangle_1563" data-name="Rectangle 1563" width="180" height="26" fill="none"/>
    </clipPath>
  </defs>
  <g id="Group_5434" data-name="Group 5434" transform="translate(-20 -40)">
    <g id="Group_5182" data-name="Group 5182" transform="translate(20 40)">
      <g id="Group_5181" data-name="Group 5181" clip-path="url(#clip-path)">
        <path id="Path_1853" data-name="Path 1853" d="M42.655,24.456c7.5,0,13.583-5.048,13.583-11.275S50.156,1.906,42.655,1.906,29.072,6.954,29.072,13.181s6.081,11.275,13.583,11.275" fill="#777"/>
        <path id="Path_1854" data-name="Path 1854" d="M36.136,11.3c-1.8,2.107-1.557,5.541.272,9.2a23.041,23.041,0,0,0,2.348,3.662l.318.068a30.447,30.447,0,0,1-1.43-3.241c-1.06-2.977-.886-5.829.766-7.768,3.1-3.636,10.23-2.69,15.966,2.1l.075-.088C47.462,9.375,39.279,7.61,36.136,11.3" fill="#fff"/>
        <path id="Path_1855" data-name="Path 1855" d="M36.136,11.3c-1.8,2.107-1.557,5.541.272,9.2a23.041,23.041,0,0,0,2.348,3.662l.318.068a30.447,30.447,0,0,1-1.43-3.241c-1.06-2.977-.886-5.829.766-7.768,3.1-3.636,10.23-2.69,15.966,2.1l.075-.088C47.462,9.375,39.279,7.61,36.136,11.3Z" fill="none" stroke="#fff" stroke-width="0.409"/>
        <path id="Path_1856" data-name="Path 1856" d="M109.12,23.932,100.626,4.859a3.71,3.71,0,0,0-.352-.665c-.23-.464-1.3-2.173-4.7-2.238-3.927-.075-4.707,2.331-4.707,2.331h.044c-.064.107-.134.212-.188.323L81.953,23.884h6.776l1.829-4.141h10l1.736,4.189Zm-17-8.206,3.217-8.667a.331.331,0,0,1,.519-.018l2.964,8.685Z" fill="#777"/>
        <path id="Path_1857" data-name="Path 1857" d="M25.738,2.267V21.519a5.6,5.6,0,0,1-1.693,2,5.011,5.011,0,0,1-2.868.686,6.19,6.19,0,0,1-2.209-.358A7.255,7.255,0,0,1,17.134,22.8L8.3,9.007H7.967V23.952H1.9V5.076Q1.9,2.7,5.38,2.018q.564-.063.8-.063a5.506,5.506,0,0,1,1.951.328,10.339,10.339,0,0,1,1.857.951l9.168,14.073h.376V2.267Z" fill="#777"/>
        <path id="Path_1858" data-name="Path 1858" d="M77.479,2.267h7.334l-8.98,20.156a4.225,4.225,0,0,1-1.881,1.311,7.186,7.186,0,0,1-2.585.467,6.242,6.242,0,0,1-3.056-.748,4.922,4.922,0,0,1-.917-.779,3.973,3.973,0,0,1-.634-.906L58.3,2.267h7.24l5.877,15.414Z" fill="#777"/>
        <path id="Path_1859" data-name="Path 1859" d="M128.352,2.267V6.448h-6.817v17.5h-6.912V6.386h-6.864V2.267Z" fill="#777"/>
        <path id="Path_1860" data-name="Path 1860" d="M150.4,19.584v4.368H136.854a5.9,5.9,0,0,1-3.126-1.232,2.929,2.929,0,0,1-1.246-2.294V5.98a3.7,3.7,0,0,1,1.034-2.668,4.321,4.321,0,0,1,3.244-1.076Q137,2.2,139.487,2.2H150.4V6.511H139.252v3.837h10.627v4.244H139.252v4.992Z" fill="#777"/>
        <path id="Path_1861" data-name="Path 1861" d="M160.878,24.242h-6.77V2.557h6.77ZM167.76,13.1,178.9,24.242h-8.2l-8.557-8.83a3.683,3.683,0,0,1-1.034-2.34,2.743,2.743,0,0,1,.141-.843l9.074-9.547h8.011Z" fill="#777"/>
      </g>
    </g>
    <g id="Group_5308" data-name="Group 5308" transform="translate(-145 -44)">
      <rect id="Rectangle_1669" data-name="Rectangle 1669" width="34" height="14" transform="translate(355 90)" fill="none"/>
      <path id="Path_1863" data-name="Path 1863" d="M-8.406-12.636h-7.74V0h7.74V-2.466h-4.662V-5.238h4.122V-7.614h-4.122V-10.17h4.662ZM2.772-3.762C2.772-7.992-3.474-7-3.474-9.2a1.12,1.12,0,0,1,1.3-1.152A1.368,1.368,0,0,1-.72-9.036H2.61c-.126-2.412-1.98-3.78-4.734-3.78-2.646,0-4.608,1.332-4.608,3.726C-6.768-4.608-.45-5.868-.45-3.528c0,.738-.576,1.188-1.476,1.188A1.449,1.449,0,0,1-3.492-3.78H-6.768C-6.678-1.224-4.554.126-1.836.126,1.116.126,2.772-1.638,2.772-3.762Zm7.794-9.018A6.166,6.166,0,0,0,4.14-6.336,6.166,6.166,0,0,0,10.584.09a6.188,6.188,0,0,0,6.084-4.356V-7.128h-6.7V-4.86h3.906a3.027,3.027,0,0,1-3.06,2.232C8.6-2.628,7.272-4,7.272-6.336c0-2.2,1.314-3.6,3.294-3.6a2.647,2.647,0,0,1,2.484,1.3h3.4C15.786-11.232,13.59-12.78,10.566-12.78Z" transform="translate(371.739 103.345)" fill="#777" opacity="0.6"/>
    </g>
  </g>
</svg>
