<svg xmlns="http://www.w3.org/2000/svg" width="28" height="12" viewBox="0 0 28 12">
  <g id="组_5433" data-name="组 5433" transform="translate(-355 -93)">
    <rect id="矩形_1669" data-name="矩形 1669" width="28" height="12" transform="translate(355 93)" fill="none"/>
    <path id="路径_1863" data-name="路径 1863" d="M-9.868-12.67h-6.278V-2.421h6.278v-2h-3.781V-6.669h3.343V-8.6h-3.343V-10.67h3.781ZM-.8-5.472C-.8-8.9-5.868-8.1-5.868-9.881a.909.909,0,0,1,1.051-.934A1.109,1.109,0,0,1-3.634-9.75h2.7c-.1-1.956-1.606-3.066-3.84-3.066-2.146,0-3.738,1.08-3.738,3.022-.029,3.635,5.1,2.613,5.1,4.511,0,.6-.467.964-1.2.964a1.175,1.175,0,0,1-1.27-1.168H-8.539c.073,2.073,1.8,3.168,4,3.168C-2.144-2.318-.8-3.749-.8-5.472Zm6.322-7.315A5,5,0,0,0,.308-7.56,5,5,0,0,0,5.535-2.348,5.019,5.019,0,0,0,10.47-5.881V-8.2H5.039v1.84H8.207a2.455,2.455,0,0,1-2.482,1.81A2.7,2.7,0,0,1,2.849-7.56a2.632,2.632,0,0,1,2.672-2.92A2.147,2.147,0,0,1,7.535-9.429h2.759A4.549,4.549,0,0,0,5.521-12.787Z" transform="translate(371.839 106.568)" fill="#777" opacity="0.7"/>
  </g>
</svg>
