<svg xmlns="http://www.w3.org/2000/svg" width="43" height="17.033" viewBox="0 0 43 17.033">
  <path id="Path_1907" data-name="Path 1907" d="M-11.6-16.778h-9.648V-.126H-11.6V-2.841h-6.313V-7.249h5.6V-9.893h-5.6v-4.169H-11.6ZM3.047-4.938c0-5.86-8.529-4-8.529-7.337,0-1.358.977-2,2.287-1.953A2.2,2.2,0,0,1-.812-12.251H2.857c-.214-3-2.549-4.741-5.956-4.741-3.43,0-5.86,1.811-5.86,4.812C-8.983-6.153-.407-8.321-.407-4.723c0,1.191-.929,2.025-2.5,2.025A2.283,2.283,0,0,1-5.434-4.914H-9.007C-8.959-1.769-6.291.041-2.837.041.951.041,3.047-2.317,3.047-4.938ZM13.6-16.968a8.243,8.243,0,0,0-8.481,8.5,8.23,8.23,0,0,0,8.5,8.481,8.126,8.126,0,0,0,8.124-6.48V-9.369h-9V-6.82H18.46a4.514,4.514,0,0,1-4.717,3.835c-3.1,0-5.193-2.1-5.193-5.479,0-3.311,2.073-5.432,5.05-5.432a4.181,4.181,0,0,1,3.907,2.144h3.835C20.271-15.086,17.317-16.968,13.6-16.968Z" transform="translate(21.252 16.992)" fill="#9f9f9f"/>
</svg>
