<svg xmlns="http://www.w3.org/2000/svg" width="40" height="40" viewBox="0 0 40 40">
  <g id="Group_925" data-name="Group 925" transform="translate(-480 -5106)">
    <rect id="Rectangle_764" data-name="Rectangle 764" width="40" height="40" rx="5" transform="translate(480 5106)" fill="#01579b"/>
    <g id="Icon_Social_LinkedIn_Silver" data-name="Icon/Social/LinkedIn/Silver" transform="translate(489.39 5115.963)">
      <g id="Page-1" transform="translate(0 0)">
        <path id="Fill-1" d="M14.156,10.993a2.018,2.018,0,0,0-2.018,2.018v7.064H7.092s.06-12.11,0-13.119h5.046v1.5A6.251,6.251,0,0,1,16.112,7C19.1,7,21.22,9.162,21.22,13.36v6.715H16.174V13.011A2.019,2.019,0,0,0,14.156,10.993ZM2.54,4.938H2.511A2.465,2.465,0,0,1,0,2.434,2.425,2.425,0,0,1,2.571,0,2.445,2.445,0,0,1,5.112,2.47,2.451,2.451,0,0,1,2.54,4.938ZM.028,20.075H5.073V6.956H.028Z" transform="translate(0 0)" fill="#fff" fill-rule="evenodd"/>
      </g>
    </g>
  </g>
</svg>
